<svg width="48" height="44" viewBox="0 0 48 44" fill="none" xmlns="http://www.w3.org/2000/svg">
<path fill-rule="evenodd" clip-rule="evenodd" d="M16.0479 0.0254932C16.4849 -0.0423484 16.888 0.0251643 17.2568 0.228618C17.6258 0.432219 17.8927 0.738409 18.0566 1.14561C18.234 1.53913 18.1863 1.98038 17.9131 2.46885L11.2227 14.0333H36.7773L30.0869 2.46885C29.8137 1.98039 29.7591 1.53913 29.9229 1.14561C30.1005 0.738409 30.3742 0.432219 30.7432 0.228618C31.1256 0.0387202 31.5355 -0.0218463 31.9727 0.046001C32.4098 0.113862 32.758 0.371633 33.0176 0.819438L40.8828 14.0333H44.8438C45.8138 14.0333 46.5794 14.3177 47.1396 14.8878C47.7135 15.4579 48 16.2189 48 17.169V20.1212C47.9999 21.0847 47.7134 21.845 47.1396 22.4015C46.5821 22.9554 45.821 23.2319 44.8574 23.2345L41.7695 37.9356C41.5646 38.9129 41.2302 39.8365 40.7656 40.7052C40.3147 41.5738 39.6244 42.2795 38.6953 42.8224C37.7799 43.3653 36.5362 43.6368 34.9648 43.6368H13.0352C11.4639 43.6368 10.2133 43.3653 9.28418 42.8224C8.3688 42.2795 7.67841 41.5738 7.21387 40.7052C6.76297 39.8365 6.43542 38.9129 6.23047 37.9356L3.14258 23.2355H3.13574C2.16565 23.2354 1.40004 22.958 0.839844 22.4015C0.279761 21.845 7.18466e-05 21.0847 0 20.1212V17.169C0 16.2189 0.279639 15.4579 0.839844 14.8878C1.40004 14.3177 2.16566 14.0333 3.13574 14.0333H7.11719L14.9824 0.819438C15.2557 0.358056 15.6107 0.0933512 16.0479 0.0254932ZM6.4707 23.2355L9.24316 36.6935C9.43445 37.5622 9.674 38.2687 9.96094 38.8116C10.2615 39.3544 10.6918 39.748 11.252 39.9923C11.8257 40.2501 12.6112 40.379 13.6084 40.379H34.3916C35.3888 40.379 36.1674 40.2501 36.7275 39.9923C37.3013 39.748 37.7316 39.3544 38.0186 38.8116C38.3192 38.2687 38.5655 37.5622 38.7568 36.6935L41.5293 23.2355H6.4707ZM13.1992 25.2511C13.5679 25.1969 13.8821 25.2584 14.1416 25.4347C14.4149 25.6111 14.5791 25.8628 14.6338 26.1886L16.335 36.836C16.3896 37.1618 16.3211 37.4472 16.1299 37.6915C15.9386 37.9494 15.6511 38.106 15.2686 38.1603C14.8999 38.228 14.5856 38.1735 14.3262 37.9972C14.0667 37.8208 13.9023 37.5629 13.834 37.2237L12.1328 26.5753C12.0645 26.2496 12.1262 25.9641 12.3174 25.7198C12.5223 25.4755 12.8166 25.3189 13.1992 25.2511ZM33.8584 25.4347C34.1179 25.2584 34.4321 25.1969 34.8008 25.2511C35.1834 25.3189 35.4708 25.4755 35.6621 25.7198C35.867 25.9641 35.9423 26.2496 35.8877 26.5753L34.166 37.2237C34.1113 37.5629 33.947 37.8208 33.6738 37.9972C33.4144 38.1735 33.1001 38.228 32.7314 38.1603C32.3489 38.106 32.0614 37.9494 31.8701 37.6915C31.6789 37.4472 31.6104 37.1618 31.665 36.836L33.3662 26.1886C33.4345 25.8628 33.5988 25.6111 33.8584 25.4347ZM20.3516 25.1905C20.7341 25.1634 21.0421 25.2585 21.2744 25.4757C21.5202 25.6793 21.6563 25.9509 21.6836 26.2901L22.3398 36.836C22.3535 37.1618 22.2508 37.4403 22.0322 37.671C21.8137 37.9017 21.5202 38.0236 21.1514 38.0372C20.7825 38.0644 20.4745 37.9762 20.2285 37.7726C19.983 37.5691 19.8467 37.298 19.8193 36.9591L19.1631 26.4327C19.1358 26.0934 19.2316 25.808 19.4502 25.5773C19.6824 25.3466 19.9828 25.2177 20.3516 25.1905ZM27.6689 25.1905C28.0377 25.2177 28.3313 25.3466 28.5498 25.5773C28.7821 25.808 28.8847 26.0934 28.8574 26.4327L28.2012 36.9591C28.1738 37.298 28.0375 37.5691 27.792 37.7726C27.546 37.9762 27.2381 38.0644 26.8691 38.0372C26.5003 38.0236 26.2069 37.9017 25.9883 37.671C25.7697 37.4403 25.667 37.1618 25.6807 36.836L26.3369 26.2901C26.3642 25.9509 26.4935 25.6793 26.7256 25.4757C26.9715 25.2585 27.2864 25.1634 27.6689 25.1905ZM3.93555 17.2706C3.47099 17.2706 3.23828 17.5084 3.23828 17.9835V19.2862C3.23834 19.7748 3.47104 20.0187 3.93555 20.0187H44.0439C44.5221 20.0187 44.7617 19.7748 44.7617 19.2862V17.9835C44.7617 17.5084 44.5222 17.2706 44.0439 17.2706H3.93555Z" fill="white"/>
</svg>
