<svg width="1314" height="288" viewBox="0 0 1314 288" fill="none" xmlns="http://www.w3.org/2000/svg">
<path d="M990.007 288C976.245 288 965.088 277.871 965.088 265.377V256.893H1070.21C1076.67 256.893 1081.9 252.146 1081.9 246.289C1081.9 240.432 1076.67 235.684 1070.21 235.684H1014.93C987.402 235.684 965.088 215.427 965.088 190.438V160.746H1187.8V169.229C1187.8 181.724 1176.64 191.852 1162.88 191.852H1082.67C1076.22 191.852 1070.99 196.6 1070.99 202.457C1070.99 208.314 1076.22 213.061 1082.67 213.061H1137.96C1165.49 213.061 1187.8 233.319 1187.8 258.307V288H990.007Z" fill="#EAFF90"/>
<path d="M348.914 127.254H241.27V45.246H298.992C326.563 45.246 348.914 65.5033 348.914 90.492V127.254ZM348.914 11.3115C348.914 17.5587 343.326 22.623 336.433 22.623H253.75C246.857 22.623 241.27 17.5587 241.27 11.3115C241.27 5.06433 246.857 0 253.75 0H336.433C343.326 0 348.914 5.06433 348.914 11.3115Z" fill="#EAFF90"/>
<path d="M363.766 127.262H397.172C397.172 140.207 385.207 150.701 370.447 150.701H363.766V127.262Z" fill="#EAFF90"/>
<path d="M1314 160.746H1206.36V242.754H1264.08C1291.65 242.754 1314 222.497 1314 197.508V160.746ZM1314 276.688C1314 270.441 1308.41 265.377 1301.52 265.377H1218.84C1211.94 265.377 1206.36 270.441 1206.36 276.688C1206.36 282.936 1211.94 288 1218.84 288H1301.52C1308.41 288 1314 282.936 1314 276.688Z" fill="#EAFF90"/>
<path d="M831.487 234.269C831.487 246.763 842.829 256.892 856.821 256.892H924.906C938.898 256.892 950.241 267.021 950.241 279.515V287.999H774.485C746.501 287.999 723.816 267.741 723.816 242.753V160.744H831.487V234.269Z" fill="#EAFF90"/>
<path d="M467.694 224.371C467.694 230.618 462.022 235.683 455.027 235.683H360.815C354.257 235.683 348.94 240.431 348.94 246.287C348.94 252.144 354.257 256.892 360.815 256.892H442.359C456.351 256.892 467.694 267.021 467.694 279.515V287.999H291.938C263.955 287.999 241.27 267.741 241.27 242.753V160.744H467.694V172.056C467.694 178.303 462.022 183.367 455.027 183.367H365.565C356.383 183.367 348.94 190.014 348.94 198.213C348.94 206.413 356.383 213.06 365.565 213.06H455.027C462.022 213.06 467.694 218.124 467.694 224.371Z" fill="#EAFF90"/>
<path d="M708.971 224.371C708.971 230.618 703.3 235.683 696.304 235.683H602.092C595.534 235.683 590.217 240.431 590.217 246.287C590.217 252.144 595.534 256.892 602.092 256.892H683.637C697.629 256.892 708.971 267.021 708.971 279.515V287.999H482.547V205.99C482.547 181.001 505.232 160.744 533.215 160.744H708.971V172.056C708.971 178.303 703.3 183.367 696.304 183.367H606.843C597.661 183.367 590.217 190.014 590.217 198.213C590.217 206.413 597.661 213.06 606.843 213.06H696.304C703.3 213.06 708.971 218.124 708.971 224.371Z" fill="#EAFF90"/>
<path d="M91.8364 41.8526C91.8364 47.6312 97.0823 52.3157 103.553 52.3157H104.503C111.499 52.3157 117.171 47.2514 117.171 41.0042V0H226.424V127.254H181.456C155.571 127.254 134.588 108.516 134.588 85.4018C134.588 79.6232 129.342 74.9387 122.871 74.9387H121.921C114.925 74.9387 109.254 80.003 109.254 86.2502V127.254H0V0H44.9682C70.8527 0 91.8364 18.738 91.8364 41.8526Z" fill="#EAFF90"/>
<path d="M91.8364 202.597C91.8364 208.375 97.0823 213.06 103.553 213.06H104.503C111.499 213.06 117.171 207.995 117.171 201.748V160.744H226.424V287.999H181.456C155.571 287.999 134.588 269.26 134.588 246.146C134.588 240.367 129.342 235.683 122.871 235.683H121.921C114.925 235.683 109.254 240.747 109.254 246.994V287.999H0V160.744H44.9682C70.8527 160.744 91.8364 179.482 91.8364 202.597Z" fill="#EAFF90"/>
<path d="M1310.4 32H1306.08V24.368H1294.52C1293.33 24.368 1292.34 24.56 1291.54 24.944C1290.74 25.328 1290.04 25.808 1289.43 26.384C1288.85 26.96 1288.29 27.584 1287.75 28.256C1287.2 28.928 1286.58 29.552 1285.88 30.128C1285.2 30.672 1284.39 31.136 1283.43 31.52C1282.47 31.872 1281.25 32.032 1279.78 32V26.72C1281.19 26.72 1282.23 26.592 1282.9 26.336C1283.6 26.08 1284.16 25.76 1284.58 25.376C1285 24.992 1285.4 24.576 1285.78 24.128C1286.2 23.648 1286.84 23.2 1287.7 22.784V22.64C1286.61 22.64 1285.62 22.448 1284.72 22.064C1283.83 21.68 1283.06 21.184 1282.42 20.576C1281.81 19.936 1281.33 19.2 1280.98 18.368C1280.66 17.504 1280.5 16.592 1280.5 15.632C1280.5 14.512 1280.72 13.488 1281.17 12.56C1281.65 11.6 1282.31 10.784 1283.14 10.112C1284 9.44 1285.03 8.928 1286.21 8.576C1287.4 8.192 1288.71 8 1290.15 8H1310.4V32ZM1284.82 16.4C1284.82 17.424 1285.27 18.208 1286.16 18.752C1287.06 19.296 1288.29 19.568 1289.86 19.568H1306.08V13.28H1289.86C1288.29 13.28 1287.06 13.552 1286.16 14.096C1285.27 14.608 1284.82 15.376 1284.82 16.4Z" fill="#EAFF90"/>
<path d="M1243.46 25.3271C1243.46 22.6391 1244.61 20.6871 1246.92 19.4711C1249.25 18.2551 1252.95 17.6791 1258.01 17.7431L1270.05 17.8391C1269.99 16.8151 1269.75 15.9671 1269.33 15.2951C1268.92 14.5911 1268.28 14.0151 1267.41 13.5671C1266.55 13.1191 1265.46 12.7991 1264.15 12.6071C1262.84 12.4151 1261.25 12.3191 1259.4 12.3191C1256.07 12.3191 1253.57 12.6231 1251.91 13.2311C1250.28 13.8391 1249.29 14.8151 1248.93 16.1591H1244.37C1244.37 13.2791 1245.72 11.0391 1248.41 9.43906C1251.09 7.83906 1254.95 7.03906 1259.97 7.03906C1264.81 7.03906 1268.39 8.01506 1270.73 9.96706C1273.09 11.9191 1274.28 14.6871 1274.28 18.2711V31.9991H1269.96V28.2071C1269.19 29.7111 1267.61 30.8791 1265.21 31.7111C1262.81 32.5431 1259.77 32.9591 1256.09 32.9591C1251.8 32.9591 1248.61 32.3511 1246.53 31.1351C1244.49 29.8871 1243.46 27.9511 1243.46 25.3271ZM1247.97 24.6551C1247.97 25.1351 1248.1 25.5511 1248.36 25.9031C1248.61 26.2231 1249.05 26.4791 1249.65 26.6711C1250.26 26.8631 1251.06 27.0071 1252.05 27.1031C1253.05 27.1671 1254.28 27.1991 1255.75 27.1991C1258.37 27.1991 1260.6 27.0871 1262.42 26.8631C1264.25 26.6071 1265.72 26.2391 1266.84 25.7591C1267.99 25.2471 1268.82 24.6071 1269.33 23.8391C1269.85 23.0711 1270.09 22.1591 1270.05 21.1031H1260.41C1258.13 21.1031 1256.2 21.1671 1254.6 21.2951C1253.03 21.4231 1251.75 21.6311 1250.76 21.9191C1249.8 22.1751 1249.09 22.5271 1248.65 22.9751C1248.2 23.4231 1247.97 23.9831 1247.97 24.6551Z" fill="#EAFF90"/>
<path d="M1209.13 8H1213.45V16.448H1233.13V8H1237.45V32H1233.13V21.728H1213.45V32H1209.13V8Z" fill="#EAFF90"/>
<path d="M1173.93 31.9512V7.95117H1178.25V14.1912H1190.34C1192.62 14.1912 1194.55 14.3672 1196.15 14.7192C1197.75 15.0392 1199.05 15.5672 1200.04 16.3032C1201.03 17.0072 1201.75 17.9192 1202.2 19.0392C1202.65 20.1592 1202.87 21.5032 1202.87 23.0712C1202.87 24.7032 1202.65 26.0792 1202.2 27.1992C1201.75 28.3192 1201.03 29.2312 1200.04 29.9352C1199.05 30.6392 1197.75 31.1512 1196.15 31.4712C1194.55 31.7912 1192.62 31.9512 1190.34 31.9512H1173.93ZM1178.25 26.6712H1193.08C1194.97 26.6712 1196.34 26.3832 1197.21 25.8072C1198.1 25.1992 1198.55 24.2872 1198.55 23.0712C1198.55 21.8552 1198.1 20.9592 1197.21 20.3832C1196.34 19.7752 1194.97 19.4712 1193.08 19.4712H1178.25V26.6712Z" fill="#EAFF90"/>
<path d="M1162.39 32V13.28H1145.25C1144.97 17.28 1144.52 20.544 1143.91 23.072C1143.33 25.568 1142.57 27.52 1141.61 28.928C1140.65 30.304 1139.49 31.2 1138.15 31.616C1136.84 32.032 1135.32 32.16 1133.59 32V26.72C1135.09 26.72 1136.29 26.432 1137.19 25.856C1138.12 25.28 1138.85 24.288 1139.4 22.88C1139.94 21.44 1140.34 19.52 1140.6 17.12C1140.85 14.72 1141.08 11.68 1141.27 8H1166.71V32H1162.39Z" fill="#EAFF90"/>
<path d="M1098.71 25.3271C1098.71 22.6391 1099.86 20.6871 1102.17 19.4711C1104.5 18.2551 1108.2 17.6791 1113.26 17.7431L1125.3 17.8391C1125.24 16.8151 1125 15.9671 1124.58 15.2951C1124.17 14.5911 1123.53 14.0151 1122.66 13.5671C1121.8 13.1191 1120.71 12.7991 1119.4 12.6071C1118.09 12.4151 1116.5 12.3191 1114.65 12.3191C1111.32 12.3191 1108.82 12.6231 1107.16 13.2311C1105.53 13.8391 1104.54 14.8151 1104.18 16.1591H1099.62C1099.62 13.2791 1100.97 11.0391 1103.66 9.43906C1106.34 7.83906 1110.2 7.03906 1115.22 7.03906C1120.06 7.03906 1123.64 8.01506 1125.98 9.96706C1128.34 11.9191 1129.53 14.6871 1129.53 18.2711V31.9991H1125.21V28.2071C1124.44 29.7111 1122.86 30.8791 1120.46 31.7111C1118.06 32.5431 1115.02 32.9591 1111.34 32.9591C1107.05 32.9591 1103.86 32.3511 1101.78 31.1351C1099.74 29.8871 1098.71 27.9511 1098.71 25.3271ZM1103.22 24.6551C1103.22 25.1351 1103.35 25.5511 1103.61 25.9031C1103.86 26.2231 1104.3 26.4791 1104.9 26.6711C1105.51 26.8631 1106.31 27.0071 1107.3 27.1031C1108.3 27.1671 1109.53 27.1991 1111 27.1991C1113.62 27.1991 1115.85 27.0871 1117.67 26.8631C1119.5 26.6071 1120.97 26.2391 1122.09 25.7591C1123.24 25.2471 1124.07 24.6071 1124.58 23.8391C1125.1 23.0711 1125.34 22.1591 1125.3 21.1031H1115.66C1113.38 21.1031 1111.45 21.1671 1109.85 21.2951C1108.28 21.4231 1107 21.6311 1106.01 21.9191C1105.05 22.1751 1104.34 22.5271 1103.9 22.9751C1103.45 23.4231 1103.22 23.9831 1103.22 24.6551Z" fill="#EAFF90"/>
<path d="M1063.82 8H1083.59C1084.87 8 1086.03 8.16 1087.05 8.48C1088.07 8.768 1088.94 9.184 1089.64 9.728C1090.35 10.272 1090.89 10.912 1091.27 11.648C1091.66 12.384 1091.85 13.184 1091.85 14.048C1091.85 14.848 1091.67 15.616 1091.32 16.352C1091 17.056 1090.54 17.632 1089.93 18.08V18.224C1091.37 18.928 1092.39 19.776 1093 20.768C1093.61 21.728 1093.91 22.992 1093.91 24.56C1093.91 27.184 1093.07 29.088 1091.37 30.272C1089.67 31.424 1086.92 32 1083.11 32H1063.82V8ZM1083.11 26.72C1084.43 26.72 1085.51 26.688 1086.38 26.624C1087.24 26.528 1087.93 26.384 1088.44 26.192C1088.95 25.968 1089.31 25.68 1089.5 25.328C1089.72 24.976 1089.83 24.544 1089.83 24.032C1089.83 23.488 1089.72 23.056 1089.5 22.736C1089.31 22.384 1088.94 22.112 1088.39 21.92C1087.88 21.696 1087.19 21.552 1086.33 21.488C1085.5 21.392 1084.43 21.344 1083.11 21.344H1068.14V26.72H1083.11ZM1083.11 17.504C1084.97 17.504 1086.23 17.344 1086.91 17.024C1087.61 16.672 1087.96 16.064 1087.96 15.2C1087.96 14.272 1087.61 13.648 1086.91 13.328C1086.2 12.976 1084.94 12.8 1083.11 12.8H1068.14V17.504H1083.11Z" fill="#EAFF90"/>
<path d="M1041.5 6.99219C1044.32 6.99219 1046.8 7.34419 1048.94 8.04819C1051.08 8.72019 1052.84 9.69619 1054.22 10.9762C1055.63 12.2242 1056.65 13.7442 1057.29 15.5362C1057.93 17.2962 1058.16 19.2482 1057.96 21.3922H1028.54C1028.8 23.4082 1030 24.9602 1032.14 26.0482C1034.28 27.1042 1037.44 27.6322 1041.6 27.6322C1044.89 27.6322 1047.48 27.3762 1049.37 26.8642C1051.29 26.3522 1052.57 25.4882 1053.21 24.2722H1057.77C1057.16 27.0562 1055.5 29.2002 1052.78 30.7042C1050.06 32.1762 1046.4 32.9122 1041.79 32.9122C1039.04 32.9122 1036.57 32.6082 1034.4 32.0002C1032.22 31.3922 1030.38 30.5282 1028.88 29.4082C1027.4 28.2562 1026.27 26.8962 1025.47 25.3282C1024.7 23.7282 1024.32 21.9522 1024.32 20.0002C1024.32 17.9202 1024.7 16.0802 1025.47 14.4802C1026.27 12.8802 1027.4 11.5202 1028.88 10.4002C1030.38 9.28019 1032.19 8.43219 1034.3 7.85619C1036.44 7.28019 1038.84 6.99219 1041.5 6.99219ZM1053.36 17.5522C1053.13 15.9202 1052.03 14.6722 1050.04 13.8082C1048.09 12.9442 1045.18 12.5122 1041.31 12.5122C1037.44 12.5122 1034.48 12.9442 1032.43 13.8082C1030.41 14.6722 1029.2 15.9202 1028.78 17.5522H1053.36Z" fill="#EAFF90"/>
<path d="M989.522 32V8H993.842V26.72H1012.85V8H1017.17V26.72H1020.72V37.76H1016.4V32H989.522Z" fill="#EAFF90"/>
<path d="M953.991 8H958.311V16.448H977.991V8H982.311V32H977.991V21.728H958.311V32H953.991V8Z" fill="#EAFF90"/>
<path d="M915.994 25.3271C915.994 22.6391 917.146 20.6871 919.45 19.4711C921.786 18.2551 925.482 17.6791 930.538 17.7431L942.586 17.8391C942.522 16.8151 942.282 15.9671 941.866 15.2951C941.45 14.5911 940.81 14.0151 939.946 13.5671C939.082 13.1191 937.994 12.7991 936.682 12.6071C935.37 12.4151 933.786 12.3191 931.93 12.3191C928.602 12.3191 926.106 12.6231 924.442 13.2311C922.81 13.8391 921.818 14.8151 921.466 16.1591H916.906C916.906 13.2791 918.25 11.0391 920.938 9.43906C923.626 7.83906 927.482 7.03906 932.506 7.03906C937.338 7.03906 940.922 8.01506 943.258 9.96706C945.626 11.9191 946.81 14.6871 946.81 18.2711V31.9991H942.49V28.2071C941.722 29.7111 940.138 30.8791 937.738 31.7111C935.338 32.5431 932.298 32.9591 928.618 32.9591C924.33 32.9591 921.146 32.3511 919.066 31.1351C917.018 29.8871 915.994 27.9511 915.994 25.3271ZM920.506 24.6551C920.506 25.1351 920.634 25.5511 920.89 25.9031C921.146 26.2231 921.578 26.4791 922.186 26.6711C922.794 26.8631 923.594 27.0071 924.586 27.1031C925.578 27.1671 926.81 27.1991 928.282 27.1991C930.906 27.1991 933.13 27.0871 934.954 26.8631C936.778 26.6071 938.25 26.2391 939.37 25.7591C940.522 25.2471 941.354 24.6071 941.866 23.8391C942.378 23.0711 942.618 22.1591 942.586 21.1031H932.938C930.666 21.1031 928.73 21.1671 927.13 21.2951C925.562 21.4231 924.282 21.6311 923.29 21.9191C922.33 22.1751 921.626 22.5271 921.178 22.9751C920.73 23.4231 920.506 23.9831 920.506 24.6551Z" fill="#EAFF90"/>
<path d="M896.066 13.28H882.866V8H913.586V13.28H900.386V32H896.066V13.28Z" fill="#EAFF90"/>
<path d="M1310.4 72H1306.08V64.368H1294.52C1293.33 64.368 1292.34 64.56 1291.54 64.944C1290.74 65.328 1290.04 65.808 1289.43 66.384C1288.85 66.96 1288.29 67.584 1287.75 68.256C1287.2 68.928 1286.58 69.552 1285.88 70.128C1285.2 70.672 1284.39 71.136 1283.43 71.52C1282.47 71.872 1281.25 72.032 1279.78 72V66.72C1281.19 66.72 1282.23 66.592 1282.9 66.336C1283.6 66.08 1284.16 65.76 1284.58 65.376C1285 64.992 1285.4 64.576 1285.78 64.128C1286.2 63.648 1286.84 63.2 1287.7 62.784V62.64C1286.61 62.64 1285.62 62.448 1284.72 62.064C1283.83 61.68 1283.06 61.184 1282.42 60.576C1281.81 59.936 1281.33 59.2 1280.98 58.368C1280.66 57.504 1280.5 56.592 1280.5 55.632C1280.5 54.512 1280.72 53.488 1281.17 52.56C1281.65 51.6 1282.31 50.784 1283.14 50.112C1284 49.44 1285.03 48.928 1286.21 48.576C1287.4 48.192 1288.71 48 1290.15 48H1310.4V72ZM1284.82 56.4C1284.82 57.424 1285.27 58.208 1286.16 58.752C1287.06 59.296 1288.29 59.568 1289.86 59.568H1306.08V53.28H1289.86C1288.29 53.28 1287.06 53.552 1286.16 54.096C1285.27 54.608 1284.82 55.376 1284.82 56.4Z" fill="#EAFF90"/>
<path d="M1245.79 48H1250.11V65.76H1250.25L1268.97 48H1274.25V72H1269.93V54.48H1269.79L1251.07 72H1245.79V48Z" fill="#EAFF90"/>
<path d="M1235.97 72H1208.51V77.76H1204.19V66.72H1207.79C1208.59 65.696 1209.31 64.496 1209.95 63.12C1210.59 61.712 1211.14 60.208 1211.59 58.608C1212.07 56.976 1212.45 55.264 1212.74 53.472C1213.03 51.68 1213.19 49.856 1213.22 48H1236.74V66.72H1240.29V77.76H1235.97V72ZM1232.42 66.72V53.28H1216.91C1216.63 55.68 1216.1 58.08 1215.33 60.48C1214.59 62.88 1213.73 64.96 1212.74 66.72H1232.42Z" fill="#EAFF90"/>
<path d="M1175.92 48H1181.2L1191.33 66.96H1191.57L1200.4 48H1206.16V48.24L1195.17 71.232C1193.98 73.696 1192.75 75.744 1191.47 77.376C1190.22 79.04 1188.93 80.352 1187.58 81.312C1186.27 82.272 1184.91 82.912 1183.5 83.232C1182.09 83.584 1180.65 83.68 1179.18 83.52V77.76C1181.13 77.76 1182.93 77.344 1184.56 76.512C1186.22 75.68 1187.65 74.208 1188.83 72.096L1175.92 48.24V48Z" fill="#EAFF90"/>
<path d="M1156.97 53.28H1143.77V48H1174.49V53.28H1161.29V72H1156.97V53.28Z" fill="#EAFF90"/>
<path d="M1136.03 57.2631C1135.84 56.4951 1135.47 55.8231 1134.93 55.2471C1134.41 54.6711 1133.69 54.2071 1132.77 53.8551C1131.87 53.5031 1130.75 53.2471 1129.41 53.0871C1128.09 52.8951 1126.51 52.7991 1124.65 52.7991C1122.32 52.7991 1120.33 52.9271 1118.7 53.1831C1117.1 53.4391 1115.79 53.8551 1114.77 54.4311C1113.77 55.0071 1113.05 55.7591 1112.61 56.6871C1112.16 57.5831 1111.93 58.6871 1111.93 59.9991C1111.93 61.3111 1112.16 62.4311 1112.61 63.3591C1113.05 64.2551 1113.79 64.9911 1114.81 65.5671C1115.84 66.1431 1117.17 66.5591 1118.8 66.8151C1120.43 67.0711 1122.41 67.1991 1124.75 67.1991C1126.57 67.1991 1128.14 67.1351 1129.45 67.0071C1130.77 66.8471 1131.87 66.6071 1132.77 66.2871C1133.66 65.9671 1134.37 65.5511 1134.88 65.0391C1135.42 64.4951 1135.82 63.8231 1136.08 63.0231H1140.64C1140.61 64.5591 1140.19 65.9351 1139.39 67.1511C1138.62 68.3671 1137.52 69.4071 1136.08 70.2711C1134.67 71.1351 1132.96 71.7911 1130.94 72.2391C1128.96 72.7191 1126.72 72.9591 1124.22 72.9591C1118.85 72.9591 1114.73 71.8551 1111.89 69.6471C1109.04 67.4391 1107.61 64.2231 1107.61 59.9991C1107.61 55.7751 1109.04 52.5591 1111.89 50.3511C1114.77 48.1431 1118.94 47.0391 1124.41 47.0391C1126.91 47.0391 1129.15 47.2791 1131.13 47.7591C1133.15 48.2391 1134.85 48.9271 1136.22 49.8231C1137.63 50.7191 1138.7 51.8071 1139.44 53.0871C1140.21 54.3351 1140.59 55.7271 1140.59 57.2631H1136.03Z" fill="#EAFF90"/>
</svg>
