<svg width="868" height="210" viewBox="0 0 868 210" fill="none" xmlns="http://www.w3.org/2000/svg">
<path d="M865.304 24H862.064V18.276H853.388C852.5 18.276 851.756 18.42 851.156 18.708C850.556 18.996 850.028 19.356 849.572 19.788C849.14 20.22 848.72 20.688 848.312 21.192C847.904 21.696 847.436 22.164 846.908 22.596C846.404 23.004 845.792 23.352 845.072 23.64C844.352 23.904 843.44 24.024 842.336 24V20.04C843.392 20.04 844.172 19.944 844.676 19.752C845.204 19.56 845.624 19.32 845.936 19.032C846.248 18.744 846.548 18.432 846.836 18.096C847.148 17.736 847.628 17.4 848.276 17.088V16.98C847.46 16.98 846.716 16.836 846.044 16.548C845.372 16.26 844.796 15.888 844.316 15.432C843.86 14.952 843.5 14.4 843.236 13.776C842.996 13.128 842.876 12.444 842.876 11.724C842.876 10.884 843.044 10.116 843.38 9.42C843.74 8.7 844.232 8.088 844.856 7.584C845.504 7.08 846.272 6.696 847.16 6.432C848.048 6.144 849.032 6 850.112 6H865.304V24ZM846.116 12.3C846.116 13.068 846.452 13.656 847.124 14.064C847.796 14.472 848.72 14.676 849.896 14.676H862.064V9.96H849.896C848.72 9.96 847.796 10.164 847.124 10.572C846.452 10.956 846.116 11.532 846.116 12.3Z" fill="#FF99BD"/>
<path d="M815.098 18.996C815.098 16.98 815.962 15.516 817.69 14.604C819.442 13.692 822.214 13.26 826.006 13.308L835.042 13.38C834.994 12.612 834.814 11.976 834.502 11.472C834.19 10.944 833.71 10.512 833.062 10.176C832.414 9.84 831.598 9.6 830.614 9.456C829.63 9.312 828.442 9.24 827.05 9.24C824.554 9.24 822.682 9.468 821.434 9.924C820.21 10.38 819.466 11.112 819.202 12.12H815.782C815.782 9.96 816.79 8.28 818.806 7.08C820.822 5.88 823.714 5.28 827.482 5.28C831.106 5.28 833.794 6.012 835.546 7.476C837.322 8.94 838.21 11.016 838.21 13.704V24H834.97V21.156C834.394 22.284 833.206 23.16 831.406 23.784C829.606 24.408 827.326 24.72 824.566 24.72C821.35 24.72 818.962 24.264 817.402 23.352C815.866 22.416 815.098 20.964 815.098 18.996ZM818.482 18.492C818.482 18.852 818.578 19.164 818.77 19.428C818.962 19.668 819.286 19.86 819.742 20.004C820.198 20.148 820.798 20.256 821.542 20.328C822.286 20.376 823.21 20.4 824.314 20.4C826.282 20.4 827.95 20.316 829.318 20.148C830.686 19.956 831.79 19.68 832.63 19.32C833.494 18.936 834.118 18.456 834.502 17.88C834.886 17.304 835.066 16.62 835.042 15.828H827.806C826.102 15.828 824.65 15.876 823.45 15.972C822.274 16.068 821.314 16.224 820.57 16.44C819.85 16.632 819.322 16.896 818.986 17.232C818.65 17.568 818.482 17.988 818.482 18.492Z" fill="#FF99BD"/>
<path d="M789.348 6H792.588V12.336H807.348V6H810.588V24H807.348V16.296H792.588V24H789.348V6Z" fill="#FF99BD"/>
<path d="M762.945 23.964V5.964H766.185V10.644H775.257C776.961 10.644 778.413 10.776 779.613 11.04C780.813 11.28 781.785 11.676 782.529 12.228C783.273 12.756 783.813 13.44 784.149 14.28C784.485 15.12 784.653 16.128 784.653 17.304C784.653 18.528 784.485 19.56 784.149 20.4C783.813 21.24 783.273 21.924 782.529 22.452C781.785 22.98 780.813 23.364 779.613 23.604C778.413 23.844 776.961 23.964 775.257 23.964H762.945ZM766.185 20.004H777.309C778.725 20.004 779.757 19.788 780.405 19.356C781.077 18.9 781.413 18.216 781.413 17.304C781.413 16.392 781.077 15.72 780.405 15.288C779.757 14.832 778.725 14.604 777.309 14.604H766.185V20.004Z" fill="#FF99BD"/>
<path d="M754.291 24V9.96H741.439C741.223 12.96 740.887 15.408 740.431 17.304C739.999 19.176 739.423 20.64 738.703 21.696C737.983 22.728 737.119 23.4 736.111 23.712C735.127 24.024 733.987 24.12 732.691 24V20.04C733.819 20.04 734.719 19.824 735.391 19.392C736.087 18.96 736.639 18.216 737.047 17.16C737.455 16.08 737.755 14.64 737.947 12.84C738.139 11.04 738.307 8.76 738.451 6H757.531V24H754.291Z" fill="#FF99BD"/>
<path d="M706.535 18.996C706.535 16.98 707.399 15.516 709.127 14.604C710.879 13.692 713.651 13.26 717.443 13.308L726.479 13.38C726.431 12.612 726.251 11.976 725.939 11.472C725.627 10.944 725.147 10.512 724.499 10.176C723.851 9.84 723.035 9.6 722.051 9.456C721.067 9.312 719.879 9.24 718.487 9.24C715.991 9.24 714.119 9.468 712.871 9.924C711.647 10.38 710.903 11.112 710.639 12.12H707.219C707.219 9.96 708.227 8.28 710.243 7.08C712.259 5.88 715.151 5.28 718.919 5.28C722.543 5.28 725.231 6.012 726.983 7.476C728.759 8.94 729.647 11.016 729.647 13.704V24H726.407V21.156C725.831 22.284 724.643 23.16 722.843 23.784C721.043 24.408 718.763 24.72 716.003 24.72C712.787 24.72 710.399 24.264 708.839 23.352C707.303 22.416 706.535 20.964 706.535 18.996ZM709.919 18.492C709.919 18.852 710.015 19.164 710.207 19.428C710.399 19.668 710.723 19.86 711.179 20.004C711.635 20.148 712.235 20.256 712.979 20.328C713.723 20.376 714.647 20.4 715.751 20.4C717.719 20.4 719.387 20.316 720.755 20.148C722.123 19.956 723.227 19.68 724.067 19.32C724.931 18.936 725.555 18.456 725.939 17.88C726.323 17.304 726.503 16.62 726.479 15.828H719.243C717.539 15.828 716.087 15.876 714.887 15.972C713.711 16.068 712.751 16.224 712.007 16.44C711.287 16.632 710.759 16.896 710.423 17.232C710.087 17.568 709.919 17.988 709.919 18.492Z" fill="#FF99BD"/>
<path d="M680.363 6H695.195C696.155 6 697.019 6.12 697.787 6.36C698.555 6.576 699.203 6.888 699.731 7.296C700.259 7.704 700.667 8.184 700.955 8.736C701.243 9.288 701.387 9.888 701.387 10.536C701.387 11.136 701.255 11.712 700.991 12.264C700.751 12.792 700.403 13.224 699.947 13.56V13.668C701.027 14.196 701.795 14.832 702.251 15.576C702.707 16.296 702.935 17.244 702.935 18.42C702.935 20.388 702.299 21.816 701.027 22.704C699.755 23.568 697.691 24 694.835 24H680.363V6ZM694.835 20.04C695.819 20.04 696.635 20.016 697.283 19.968C697.931 19.896 698.447 19.788 698.831 19.644C699.215 19.476 699.479 19.26 699.623 18.996C699.791 18.732 699.875 18.408 699.875 18.024C699.875 17.616 699.791 17.292 699.623 17.052C699.479 16.788 699.203 16.584 698.795 16.44C698.411 16.272 697.895 16.164 697.247 16.116C696.623 16.044 695.819 16.008 694.835 16.008H683.603V20.04H694.835ZM694.835 13.128C696.227 13.128 697.175 13.008 697.679 12.768C698.207 12.504 698.471 12.048 698.471 11.4C698.471 10.704 698.207 10.236 697.679 9.996C697.151 9.732 696.203 9.6 694.835 9.6H683.603V13.128H694.835Z" fill="#FF99BD"/>
<path d="M663.626 5.244C665.738 5.244 667.598 5.508 669.206 6.036C670.814 6.54 672.134 7.272 673.166 8.232C674.222 9.168 674.99 10.308 675.47 11.652C675.95 12.972 676.118 14.436 675.974 16.044H653.906C654.098 17.556 654.998 18.72 656.606 19.536C658.214 20.328 660.578 20.724 663.698 20.724C666.17 20.724 668.114 20.532 669.53 20.148C670.97 19.764 671.93 19.116 672.41 18.204H675.83C675.374 20.292 674.126 21.9 672.086 23.028C670.046 24.132 667.298 24.684 663.842 24.684C661.778 24.684 659.93 24.456 658.298 24C656.666 23.544 655.286 22.896 654.158 22.056C653.054 21.192 652.202 20.172 651.602 18.996C651.026 17.796 650.738 16.464 650.738 15C650.738 13.44 651.026 12.06 651.602 10.86C652.202 9.66 653.054 8.64 654.158 7.8C655.286 6.96 656.642 6.324 658.226 5.892C659.834 5.46 661.634 5.244 663.626 5.244ZM672.518 13.164C672.35 11.94 671.522 11.004 670.034 10.356C668.57 9.708 666.386 9.384 663.482 9.384C660.578 9.384 658.358 9.708 656.822 10.356C655.31 11.004 654.398 11.94 654.086 13.164H672.518Z" fill="#FF99BD"/>
<path d="M624.641 24V6H627.881V20.04H642.137V6H645.377V20.04H648.041V28.32H644.801V24H624.641Z" fill="#FF99BD"/>
<path d="M597.992 6H601.232V12.336H615.992V6H619.232V24H615.992V16.296H601.232V24H597.992V6Z" fill="#FF99BD"/>
<path d="M569.496 18.996C569.496 16.98 570.36 15.516 572.088 14.604C573.84 13.692 576.612 13.26 580.404 13.308L589.44 13.38C589.392 12.612 589.212 11.976 588.9 11.472C588.588 10.944 588.108 10.512 587.46 10.176C586.812 9.84 585.996 9.6 585.012 9.456C584.028 9.312 582.84 9.24 581.448 9.24C578.952 9.24 577.08 9.468 575.832 9.924C574.608 10.38 573.864 11.112 573.6 12.12H570.18C570.18 9.96 571.188 8.28 573.204 7.08C575.22 5.88 578.112 5.28 581.88 5.28C585.504 5.28 588.192 6.012 589.944 7.476C591.72 8.94 592.608 11.016 592.608 13.704V24H589.368V21.156C588.792 22.284 587.604 23.16 585.804 23.784C584.004 24.408 581.724 24.72 578.964 24.72C575.748 24.72 573.36 24.264 571.8 23.352C570.264 22.416 569.496 20.964 569.496 18.996ZM572.88 18.492C572.88 18.852 572.976 19.164 573.168 19.428C573.36 19.668 573.684 19.86 574.14 20.004C574.596 20.148 575.196 20.256 575.94 20.328C576.684 20.376 577.608 20.4 578.712 20.4C580.68 20.4 582.348 20.316 583.716 20.148C585.084 19.956 586.188 19.68 587.028 19.32C587.892 18.936 588.516 18.456 588.9 17.88C589.284 17.304 589.464 16.62 589.44 15.828H582.204C580.5 15.828 579.048 15.876 577.848 15.972C576.672 16.068 575.712 16.224 574.968 16.44C574.248 16.632 573.72 16.896 573.384 17.232C573.048 17.568 572.88 17.988 572.88 18.492Z" fill="#FF99BD"/>
<path d="M554.548 9.96H544.648V6H567.688V9.96H557.788V24H554.548V9.96Z" fill="#FF99BD"/>
<path d="M865.304 56H862.064V50.276H853.388C852.5 50.276 851.756 50.42 851.156 50.708C850.556 50.996 850.028 51.356 849.572 51.788C849.14 52.22 848.72 52.688 848.312 53.192C847.904 53.696 847.436 54.164 846.908 54.596C846.404 55.004 845.792 55.352 845.072 55.64C844.352 55.904 843.44 56.024 842.336 56V52.04C843.392 52.04 844.172 51.944 844.676 51.752C845.204 51.56 845.624 51.32 845.936 51.032C846.248 50.744 846.548 50.432 846.836 50.096C847.148 49.736 847.628 49.4 848.276 49.088V48.98C847.46 48.98 846.716 48.836 846.044 48.548C845.372 48.26 844.796 47.888 844.316 47.432C843.86 46.952 843.5 46.4 843.236 45.776C842.996 45.128 842.876 44.444 842.876 43.724C842.876 42.884 843.044 42.116 843.38 41.42C843.74 40.7 844.232 40.088 844.856 39.584C845.504 39.08 846.272 38.696 847.16 38.432C848.048 38.144 849.032 38 850.112 38H865.304V56ZM846.116 44.3C846.116 45.068 846.452 45.656 847.124 46.064C847.796 46.472 848.72 46.676 849.896 46.676H862.064V41.96H849.896C848.72 41.96 847.796 42.164 847.124 42.572C846.452 42.956 846.116 43.532 846.116 44.3Z" fill="#FF99BD"/>
<path d="M816.84 38H820.08V51.32H820.188L834.228 38H838.188V56H834.948V42.86H834.84L820.8 56H816.84V38Z" fill="#FF99BD"/>
<path d="M809.477 56H788.885V60.32H785.645V52.04H788.345C788.945 51.272 789.485 50.372 789.965 49.34C790.445 48.284 790.853 47.156 791.189 45.956C791.549 44.732 791.837 43.448 792.053 42.104C792.269 40.76 792.389 39.392 792.413 38H810.053V52.04H812.717V60.32H809.477V56ZM806.813 52.04V41.96H795.185C794.969 43.76 794.573 45.56 793.997 47.36C793.445 49.16 792.797 50.72 792.053 52.04H806.813Z" fill="#FF99BD"/>
<path d="M764.438 38H768.397L775.993 52.22H776.174L782.798 38H787.118V38.18L778.873 55.424C777.985 57.272 777.062 58.808 776.102 60.032C775.166 61.28 774.194 62.264 773.186 62.984C772.202 63.704 771.181 64.184 770.125 64.424C769.069 64.688 767.989 64.76 766.885 64.64V60.32C768.349 60.32 769.693 60.008 770.917 59.384C772.165 58.76 773.233 57.656 774.121 56.072L764.438 38.18V38Z" fill="#FF99BD"/>
<path d="M750.228 41.96H740.328V38H763.368V41.96H753.468V56H750.228V41.96Z" fill="#FF99BD"/>
<path d="M734.523 44.948C734.379 44.372 734.103 43.868 733.695 43.436C733.311 43.004 732.771 42.656 732.075 42.392C731.403 42.128 730.563 41.936 729.555 41.816C728.571 41.672 727.383 41.6 725.991 41.6C724.239 41.6 722.751 41.696 721.527 41.888C720.327 42.08 719.343 42.392 718.575 42.824C717.831 43.256 717.291 43.82 716.955 44.516C716.619 45.188 716.451 46.016 716.451 47C716.451 47.984 716.619 48.824 716.955 49.52C717.291 50.192 717.843 50.744 718.611 51.176C719.379 51.608 720.375 51.92 721.599 52.112C722.823 52.304 724.311 52.4 726.063 52.4C727.431 52.4 728.607 52.352 729.591 52.256C730.575 52.136 731.403 51.956 732.075 51.716C732.747 51.476 733.275 51.164 733.659 50.78C734.067 50.372 734.367 49.868 734.559 49.268H737.979C737.955 50.42 737.643 51.452 737.043 52.364C736.467 53.276 735.639 54.056 734.559 54.704C733.503 55.352 732.219 55.844 730.707 56.18C729.219 56.54 727.539 56.72 725.667 56.72C721.635 56.72 718.551 55.892 716.415 54.236C714.279 52.58 713.211 50.168 713.211 47C713.211 43.832 714.279 41.42 716.415 39.764C718.575 38.108 721.707 37.28 725.811 37.28C727.683 37.28 729.363 37.46 730.851 37.82C732.363 38.18 733.635 38.696 734.667 39.368C735.723 40.04 736.527 40.856 737.079 41.816C737.655 42.752 737.943 43.796 737.943 44.948H734.523Z" fill="#FF99BD"/>
<path d="M653.604 210C644.407 210 636.952 202.553 636.952 193.366V187.129H707.203C711.514 187.129 715.009 183.638 715.009 179.332C715.009 175.025 711.514 171.535 707.203 171.535H670.256C651.862 171.535 636.952 156.64 636.952 138.267V116.436H785.781V122.673C785.781 131.86 778.326 139.307 769.129 139.307H715.529C711.218 139.307 707.724 142.798 707.724 147.104C707.724 151.41 711.218 154.901 715.529 154.901H752.477C770.87 154.901 785.781 169.795 785.781 188.168V210H653.604Z" fill="#FF99BD"/>
<path d="M231.051 93.5644H159.238V37.4257H198.787C216.606 37.4257 231.051 51.8546 231.051 69.6535V93.5644ZM231.051 10.396C231.051 16.1376 226.392 20.7921 220.644 20.7921H169.646C163.898 20.7921 159.238 16.1376 159.238 10.396C159.238 4.65447 163.898 0 169.646 0H220.644C226.392 0 231.051 4.65447 231.051 10.396Z" fill="#FF99BD"/>
<path d="M241.457 93.5643H262.272C262.272 102.751 254.817 110.198 245.62 110.198H241.457V93.5643Z" fill="#FF99BD"/>
<path d="M868 116.436H796.188V171.015H835.737C853.555 171.015 868 156.586 868 138.787V116.436ZM868 198.824C868 192.652 862.991 187.649 856.812 187.649H807.376C801.197 187.649 796.188 192.652 796.188 198.824C796.188 204.996 801.197 210 807.376 210H856.812C862.991 210 868 204.996 868 198.824Z" fill="#FF99BD"/>
<path d="M548.483 170.495C548.483 179.682 555.939 187.129 565.135 187.129H609.888C619.085 187.129 626.541 194.576 626.541 203.762V210H511.015C492.622 210 477.711 195.106 477.711 176.733V116.436H548.483V170.495Z" fill="#FF99BD"/>
<path d="M308.068 163.218C308.068 167.811 304.34 171.535 299.742 171.535H239.898C235.587 171.535 232.092 175.026 232.092 179.332C232.092 183.638 235.587 187.129 239.898 187.129H299.742C304.34 187.129 308.068 190.852 308.068 195.446V210H192.543C174.149 210 159.238 195.106 159.238 176.733V116.436H308.068V131.51C308.068 136.103 304.34 139.827 299.742 139.827H239.638C235.47 139.827 232.092 143.201 232.092 147.364C232.092 151.527 235.47 154.901 239.638 154.901H299.742C304.34 154.901 308.068 158.625 308.068 163.218Z" fill="#FF99BD"/>
<path d="M467.306 163.218C467.306 167.811 463.579 171.535 458.98 171.535H399.136C394.825 171.535 391.33 175.026 391.33 179.332C391.33 183.638 394.825 187.129 399.136 187.129H458.98C463.579 187.129 467.306 190.852 467.306 195.446V210H351.781C333.388 210 318.477 195.106 318.477 176.733V116.436H467.306V131.51C467.306 136.103 463.579 139.827 458.98 139.827H398.876C394.709 139.827 391.33 143.201 391.33 147.364C391.33 151.527 394.709 154.901 398.876 154.901H458.98C463.579 154.901 467.306 158.625 467.306 163.218Z" fill="#FF99BD"/>
<path d="M60.3645 30.7723C60.3645 35.021 63.8127 38.4654 68.0662 38.4654H68.6907C73.2891 38.4654 77.0168 34.7418 77.0168 30.1485V0H148.83V93.5644H119.272C102.258 93.5644 88.4652 79.7871 88.4652 62.7921C88.4652 58.5433 85.0171 55.099 80.7635 55.099H80.1391C75.5407 55.099 71.813 58.8226 71.813 63.4158V93.5644H0V0H29.5578C46.5719 0 60.3645 13.7772 60.3645 30.7723Z" fill="#FF99BD"/>
<path d="M60.3645 147.208C60.3645 151.457 63.8127 154.901 68.0662 154.901H68.6907C73.2891 154.901 77.0168 151.177 77.0168 146.584V116.436H148.83V210H119.272C102.258 210 88.4652 196.223 88.4652 179.228C88.4652 174.979 85.0171 171.535 80.7635 171.535H80.1391C75.5407 171.535 71.813 175.258 71.813 179.851V210H0V116.436H29.5578C46.5719 116.436 60.3645 130.213 60.3645 147.208Z" fill="#FF99BD"/>
</svg>
