<svg width="132" height="38" viewBox="0 0 132 38" fill="none" xmlns="http://www.w3.org/2000/svg">
<path d="M92 38H64V13.5111H67.5111C81.036 13.5111 92 24.4752 92 38ZM92 3.37778C92 5.24327 90.4877 6.75556 88.6222 6.75556H67.3778C65.5123 6.75556 64 5.24327 64 3.37778C64 1.51228 65.5123 0 67.3778 0H88.6222C90.4877 0 92 1.51228 92 3.37778Z" fill="#FF99BD"/>
<path d="M132 -4.17233e-07H103V24.4889H107.511C121.036 24.4889 132 13.5248 132 -4.17233e-07ZM132 34.6222C132 32.7567 130.488 31.2444 128.622 31.2444H106.378C104.512 31.2444 103 32.7567 103 34.6222C103 36.4877 104.512 38 106.378 38H128.622C130.488 38 132 36.4877 132 34.6222Z" fill="#FF99BD"/>
<path d="M24.3357 12.4978C24.3357 14.2234 25.7345 15.6222 27.4601 15.6222H27.6923C29.5461 15.6222 31.049 14.1194 31.049 12.2656V0H60V38H48.1621C41.2598 38 35.6643 32.4046 35.6643 25.5022C35.6643 23.7766 34.2655 22.3778 32.5399 22.3778H32.3077C30.4539 22.3778 28.951 23.8806 28.951 25.7344V38H0V0H11.8379C18.7402 0 24.3357 5.59545 24.3357 12.4978Z" fill="#FF99BD"/>
</svg>
