<svg width="32" height="28" viewBox="0 0 32 28" fill="none" xmlns="http://www.w3.org/2000/svg">
<path d="M13.1885 17.7143L20.1894 22.216L25.6828 25.8485C26.0878 26.116 26.2903 26.2497 26.4721 26.2497C26.5507 26.2502 26.6284 26.2345 26.7004 26.2035C26.7724 26.1724 26.8371 26.1268 26.8902 26.0695C27.0158 25.9414 27.0533 25.7055 27.1283 25.2338L31 1L2.2616 12.8356C1.52101 13.1401 1.15166 13.2943 1.05604 13.493C1.0146 13.5779 0.995607 13.6719 1.00085 13.7661C1.0061 13.8603 1.03541 13.9516 1.08604 14.0316C1.20416 14.2173 1.58851 14.3287 2.36097 14.5534L13.1885 17.7143ZM31 1L13.1885 17.7143M13.1885 17.7143L13.481 25.7C13.481 26.3203 13.481 26.6304 13.6103 26.7864C13.7228 26.9238 13.8916 27.0018 14.0716 27C14.2778 26.9981 14.5215 26.7994 15.009 26.4057L20.1894 22.216" stroke="#FF99BD" stroke-width="2" stroke-linecap="round" stroke-linejoin="round"/>
</svg>
