<svg width="42" height="42" viewBox="0 0 42 42" fill="none" xmlns="http://www.w3.org/2000/svg">
<path d="M30.5237 29.5731C27.2094 32.8874 19.5732 30.0627 15.7561 26.2455C11.939 22.4284 9.11421 14.7922 12.4285 11.4779C13.3885 10.5179 14.7104 10.4036 15.518 10.4417C15.9847 10.4627 16.3885 10.737 16.6609 11.1179L18.4742 13.6589C18.736 14.0258 18.8592 14.4737 18.8219 14.9229C18.7846 15.3721 18.5892 15.7935 18.2704 16.1122L16.5542 17.8284C16.8704 18.7808 17.8875 21.0665 19.4113 22.5903C20.9351 24.1141 23.2209 25.1312 24.1732 25.4474L25.8894 23.7331C26.2079 23.4141 26.6292 23.2183 27.0784 23.1807C27.5276 23.143 27.9756 23.2659 28.3428 23.5274L30.8837 25.3408C31.2647 25.6131 31.5389 26.017 31.5599 26.4836C31.598 27.2912 31.4837 28.6131 30.5237 29.5731Z" stroke="#FF99BD" stroke-width="2" stroke-linejoin="round"/>
<path d="M21 41C32.0457 41 41 32.0457 41 21C41 9.95429 32.0457 1 21 1C9.95427 1 1 9.95429 1 21C1 24.6419 1.97333 28.059 3.67619 31L2 40L11 38.3238C14.039 40.0822 17.489 41.0055 21 41Z" stroke="#FF99BD" stroke-width="2" stroke-linejoin="round"/>
</svg>
