<svg width="1318" height="1080" viewBox="0 0 1318 1080" fill="none" xmlns="http://www.w3.org/2000/svg">
<path d="M732.745 540C692.023 540 659.011 582.981 659.011 636V672H970.072C989.161 672 1004.63 692.147 1004.63 717C1004.63 741.853 989.161 762 970.072 762H806.477C725.034 762 659.011 847.961 659.011 954V1080H1318V1044C1318 990.981 1284.99 948 1244.27 948H1006.94C987.851 948 972.377 927.853 972.377 903C972.377 878.147 987.851 858 1006.94 858H1170.53C1251.98 858 1318 772.039 1318 666V540H732.745Z" fill="white"/>
<path d="M585.255 540C625.977 540 658.989 582.981 658.989 636V672H347.928C328.839 672 313.365 692.147 313.365 717C313.365 741.853 328.839 762 347.928 762H511.523C592.966 762 658.989 847.961 658.989 954V1080H0V1044C0 990.981 33.0114 948 73.733 948H311.061C330.149 948 345.623 927.853 345.623 903C345.623 878.147 330.149 858 311.061 858H147.466C66.0228 858 0 772.039 0 666V540H585.255Z" fill="white"/>
<path d="M732.745 540C692.023 540 659.011 497.019 659.011 444V408H970.072C989.161 408 1004.63 387.853 1004.63 363C1004.63 338.147 989.161 318 970.072 318H806.477C725.034 318 659.011 232.039 659.011 126V-1.3092e-05H1318V36C1318 89.0193 1284.99 132 1244.27 132H1006.94C987.851 132 972.377 152.147 972.377 177C972.377 201.853 987.851 222 1006.94 222H1170.53C1251.98 222 1318 307.961 1318 414V540H732.745Z" fill="white"/>
<path d="M585.255 540C625.977 540 658.989 497.019 658.989 444V408H347.928C328.839 408 313.365 387.853 313.365 363C313.365 338.147 328.839 318 347.928 318H511.523C592.966 318 658.989 232.039 658.989 126V-1.3092e-05H0V36C0 89.0193 33.0114 132 73.733 132H311.061C330.149 132 345.623 152.147 345.623 177C345.623 201.853 330.149 222 311.061 222H147.466C66.0228 222 0 307.961 0 414V540H585.255Z" fill="white"/>
</svg>
